HIERARCHY
ROOT root
{
	OFFSET 0.000000 0.000000 0.000000
	CHANNELS 6 Xposition Yposition Zposition Zrotation Yrotation Xrotation
	JOINT lhip
	{
		OFFSET 0.058581 -0.082280 -0.017664
		CHANNELS 3 Zrotation Yrotation Xrotation
		JOINT lknee
		{
			OFFSET 0.043451 -0.386469 0.008037
			CHANNELS 3 Zrotation Yrotation Xrotation
			JOINT lankle
			{
				OFFSET -0.014790 -0.426874 -0.037428
				CHANNELS 3 Zrotation Yrotation Xrotation
				JOINT ltoe
				{
					OFFSET 0.041054 -0.060286 0.122042
					CHANNELS 3 Zrotation Yrotation Xrotation
					End Site
					{
						OFFSET 0.000000 0.000000 0.000000
					}
				}
			}
		}
	}
	JOINT rhip
	{
		OFFSET -0.060310 -0.090513 -0.013543
		CHANNELS 3 Zrotation Yrotation Xrotation
		JOINT rknee
		{
			OFFSET -0.043257 -0.383688 -0.004843
			CHANNELS 3 Zrotation Yrotation Xrotation
			JOINT rankle
			{
				OFFSET 0.019056 -0.420046 -0.034562
				CHANNELS 3 Zrotation Yrotation Xrotation
				JOINT rtoe
				{
					OFFSET -0.034840 -0.062106 0.130323
					CHANNELS 3 Zrotation Yrotation Xrotation
					End Site
					{
						OFFSET 0.000000 0.000000 0.000000
					}
				}
			}
		}
	}
	JOINT lowerback
	{
		OFFSET 0.004439 0.124404 -0.038385
		CHANNELS 3 Zrotation Yrotation Xrotation
		JOINT upperback
		{
			OFFSET 0.004488 0.137956 0.026820
			CHANNELS 3 Zrotation Yrotation Xrotation
			JOINT chest
			{
				OFFSET -0.002265 0.056032 0.002855
				CHANNELS 3 Zrotation Yrotation Xrotation
				JOINT lowerneck
				{
					OFFSET -0.013390 0.211636 -0.033468
					CHANNELS 3 Zrotation Yrotation Xrotation
					JOINT upperneck
					{
						OFFSET 0.010113 0.088937 0.050410
						CHANNELS 3 Zrotation Yrotation Xrotation
						End Site
						{
							OFFSET 0.000000 0.000000 0.000000
						}
					}
				}
				JOINT lclavicle
				{
					OFFSET 0.071702 0.114000 -0.018898
					CHANNELS 3 Zrotation Yrotation Xrotation
					JOINT lshoulder
					{
						OFFSET 0.122921 0.045205 -0.019046
						CHANNELS 3 Zrotation Yrotation Xrotation
						JOINT lelbow
						{
							OFFSET 0.255332 -0.015649 -0.022946
							CHANNELS 3 Zrotation Yrotation Xrotation
							JOINT lwrist
							{
								OFFSET 0.265709 0.012698 -0.007375
								CHANNELS 3 Zrotation Yrotation Xrotation
								End Site
								{
									OFFSET 0.000000 0.000000 0.000000
								}
							}
						}
					}
				}
				JOINT rclavicle
				{
					OFFSET -0.082954 0.112472 -0.023707
					CHANNELS 3 Zrotation Yrotation Xrotation
					JOINT rshoulder
					{
						OFFSET -0.113228 0.046853 -0.008472
						CHANNELS 3 Zrotation Yrotation Xrotation
						JOINT relbow
						{
							OFFSET -0.260127 -0.014369 -0.031269
							CHANNELS 3 Zrotation Yrotation Xrotation
							JOINT rwrist
							{
								OFFSET -0.269108 0.006794 -0.006027
								CHANNELS 3 Zrotation Yrotation Xrotation
								End Site
								{
									OFFSET 0.000000 0.000000 0.000000
								}
							}
						}
					}
				}
			}
		}
	}
}
MOTION
Frames: 11
Frame Time: 0.033333
-0.681012 0.570634 0.956919 179.220572 1.423505 94.571874 10.101746 0.595040 -8.455596 -13.398480 -6.102974 55.305954 -4.861630 4.786456 -19.616496 0.000000 -0.000000 0.000000 4.762936 7.839871 -15.824450 1.312779 4.197976 31.377167 -2.951011 -5.134369 -28.537303 0.000000 -0.000000 0.000000 1.140991 -2.365901 23.031949 5.854131 -0.932189 0.683268 3.030436 -1.678099 0.387576 -1.300147 5.212306 -13.531302 -4.064530 -1.448749 -1.967983 -23.138967 2.948150 5.269590 -54.167884 2.892945 11.201085 -0.292559 -52.010064 26.328590 -1.710110 -13.921214 -10.854532 23.328037 -2.396650 3.368356 48.639120 -6.207042 9.486833 -14.234300 43.549905 7.851013 9.288177 8.289120 -10.147753 
-0.678810 0.605983 0.949721 176.429949 0.848490 94.285257 9.302730 1.835738 -14.328754 -15.039500 -3.936835 61.515770 -4.802822 2.518212 -21.201670 0.000000 -0.000000 0.000000 4.979039 7.019621 -14.018191 1.231626 6.839650 32.670728 -3.549333 -4.770985 -30.748874 0.000000 -0.000000 0.000000 0.913475 -0.296445 23.836183 5.641896 -0.048919 0.489269 2.925208 -0.589650 0.753198 -1.016882 5.255475 -13.483274 -5.100495 -1.752639 -2.484890 -23.149592 4.982842 5.255156 -54.859793 7.838631 10.858224 -5.140035 -48.454484 33.396191 -4.700581 -12.908955 -9.158291 23.105043 -1.783279 3.144888 47.960321 -3.730581 9.819902 -12.157407 46.900749 10.946053 9.696923 8.508529 -8.703648 
-0.676621 0.643000 0.949351 174.425126 0.155602 94.443943 8.432336 2.100428 -19.821311 -15.931219 -3.039359 61.060867 -4.464752 1.063702 -22.486092 0.000000 -0.000000 0.000000 4.387014 5.966666 -11.253643 1.480869 9.076197 31.450378 -3.384215 -4.136028 -31.576560 0.000000 -0.000000 0.000000 0.521762 2.076871 23.888566 5.442463 0.339096 0.362722 2.747226 0.227139 0.978370 -0.972439 5.506879 -12.928563 -5.725625 -2.617589 -3.761794 -22.262280 7.247846 5.788073 -54.042485 12.638450 10.946800 -11.176969 -47.628048 40.686066 -8.139187 -12.373387 -10.116386 22.632487 -2.256713 3.025693 47.547434 -1.815095 10.393039 -11.237187 53.895412 11.373044 6.720763 9.282979 -8.751814 
-0.674903 0.682522 0.955729 173.567822 -0.542844 94.751817 7.651618 0.683574 -23.907552 -15.726346 -3.656037 54.145850 -4.025353 0.832908 -23.135205 0.000000 -0.000000 0.000000 3.255757 4.673733 -7.109604 1.808335 11.206482 27.585495 -2.113655 -3.220516 -30.554571 0.000000 -0.000000 0.000000 0.272771 4.332780 23.555101 5.154029 0.167838 0.111298 2.424886 0.575464 1.462743 -0.955821 6.013600 -12.733937 -5.988641 -3.808721 -4.699830 -20.791507 9.467602 6.694663 -52.092607 16.640244 11.632442 -17.773217 -48.586767 47.119957 -9.739668 -12.996797 -12.682349 22.039543 -3.307449 2.567885 47.429083 -0.258982 11.545643 -12.069488 62.522696 9.117564 1.514948 10.416840 -9.924093 
-0.673820 0.724308 0.966208 173.575297 -1.302275 95.324080 7.159950 -2.447071 -26.379356 -14.075357 -4.899526 42.324273 -3.925665 1.819561 -22.511349 0.000000 -0.000000 0.000000 1.700082 3.249497 -2.302721 1.809918 12.989934 22.068124 0.217590 -1.911216 -27.732383 0.000000 -0.000000 0.000000 -0.094226 6.389956 22.677206 4.796232 -0.574030 -0.184844 2.113831 0.689004 2.049257 -1.025162 6.571164 -12.704248 -5.801866 -5.184454 -4.938799 -18.850650 11.600225 7.587378 -50.165769 19.570962 12.527553 -23.360193 -50.092155 51.499571 -10.452126 -14.270740 -15.244245 21.153483 -4.660176 1.750374 47.772033 1.103827 12.900612 -15.714493 70.553434 4.466873 -2.061260 11.340407 -11.075441 
-0.672997 0.767942 0.977986 173.590725 -1.955166 95.997858 6.883253 -5.659782 -27.198385 -11.246338 -5.963906 28.567952 -4.508238 3.208277 -20.640232 0.000000 -0.000000 0.000000 0.107185 2.078666 2.247007 1.546154 14.092893 16.885828 3.235304 -0.394214 -23.505697 0.000000 -0.000000 0.000000 -0.673612 8.222569 21.280076 4.235377 -1.349661 0.008098 1.818553 0.815961 2.296472 -1.168034 6.948645 -12.485612 -5.008942 -6.517232 -4.879902 -16.924450 13.271906 8.484947 -48.821147 21.589192 13.116434 -26.957347 -52.148926 53.195945 -11.355066 -15.427072 -17.822932 20.293327 -5.719204 1.137463 48.449211 2.072276 13.917010 -25.145314 76.711747 -5.740586 -3.275175 11.899172 -12.216084 
-0.671626 0.812923 0.988189 173.188034 -2.093537 96.567696 6.171100 -6.610257 -27.296015 -8.117130 -5.973487 17.961113 -5.073510 4.506555 -18.646446 0.000000 -0.000000 0.000000 -0.814360 1.495794 5.420800 1.463579 14.743795 14.557271 6.297246 1.032624 -18.909296 0.000000 -0.000000 0.000000 -1.374362 9.498797 19.610372 3.528895 -1.611782 0.618071 1.497669 1.037156 2.217366 -1.172505 6.973000 -12.079803 -3.682681 -7.271564 -4.703859 -15.570150 14.130525 9.312266 -48.012227 22.882201 13.158149 -28.773102 -54.533773 53.231528 -11.152260 -16.042381 -19.716247 19.846820 -6.163103 0.979558 48.900900 2.547597 14.338034 -39.114798 80.360365 -20.108303 -3.907089 12.317137 -12.681251 
-0.669412 0.858674 0.993369 172.258288 -1.620360 96.830770 5.228571 -5.683053 -26.875391 -6.254173 -5.072527 12.750078 -4.451883 5.595216 -17.704687 0.000000 -0.000000 0.000000 -0.903562 1.598458 6.172844 2.146443 15.482009 17.364254 9.048144 2.376768 -15.106843 0.000000 -0.000000 0.000000 -2.278562 9.938511 18.122441 2.922547 -1.257004 1.190374 1.097561 1.354822 2.062088 -0.807361 6.864144 -11.771319 -2.208413 -7.336211 -4.315232 -15.052874 14.260200 9.639502 -47.462396 23.492252 12.875721 -28.841733 -56.473525 52.287076 -9.558486 -16.077926 -19.658213 19.883865 -5.985200 1.062920 48.990089 2.584582 14.528155 -48.146471 81.740200 -29.455407 -5.058891 12.728657 -12.609720 
-0.666558 0.905389 0.990419 170.904111 -0.698648 96.493691 5.035088 -5.353975 -25.160675 -5.779238 -5.046547 11.715248 -2.985022 6.564101 -15.944906 0.000000 -0.000000 0.000000 -0.310598 2.665834 4.870486 3.881066 16.510356 25.303363 10.736648 3.237211 -12.564543 0.000000 -0.000000 0.000000 -3.405217 9.534856 16.919185 2.633633 -0.645608 1.930948 0.630595 1.623228 1.920652 -0.015416 7.175096 -11.532781 -0.944661 -6.966135 -3.851795 -15.361680 13.990872 9.304944 -47.272116 23.306074 12.606165 -26.278999 -57.499418 49.150150 -7.485666 -15.577694 -18.528632 20.341992 -5.254901 1.248370 48.967238 2.406054 14.997717 -45.392159 81.244837 -27.325772 -6.464943 12.857473 -13.233949 
-0.663531 0.952618 0.978749 169.893506 0.221481 95.173931 5.117790 -5.086981 -23.931773 -6.728310 -5.876759 16.843941 0.905894 6.968479 -14.155328 0.000000 -0.000000 0.000000 0.579221 4.359495 2.906112 6.357033 16.468100 36.159053 9.752755 2.578721 -12.363254 0.000000 -0.000000 0.000000 -4.531721 8.275554 17.162551 2.535442 -0.241762 1.962546 0.198782 1.719624 2.274294 1.046265 7.442572 -11.274273 0.005280 -5.962793 -3.596253 -16.313408 13.240885 8.460042 -47.356596 21.921499 12.141596 -21.732824 -57.188662 43.996357 -5.329770 -14.553979 -18.183779 20.835172 -4.246263 1.126199 49.342253 1.838504 15.646826 -35.156820 78.957356 -17.634178 -7.258123 12.529261 -13.775215 
-0.659563 0.999586 0.963192 169.880445 0.577739 92.799367 5.095878 -5.322190 -23.347030 -8.655956 -5.790666 25.704733 3.691370 7.661350 -16.936497 0.000000 -0.000000 0.000000 0.950599 5.429532 0.654845 8.198558 14.106976 47.539401 8.066725 1.136209 -15.160372 0.000000 -0.000000 0.000000 -5.269195 6.863495 19.675502 2.178651 -0.520675 1.421160 -0.354209 1.545371 3.129318 2.128918 7.948225 -11.717384 0.574465 -5.192274 -3.736771 -18.003717 11.325704 6.624277 -46.956625 18.791723 11.699408 -15.712506 -55.253795 37.400400 -4.081040 -13.851412 -17.195275 21.615900 -3.193432 0.436479 50.283422 0.615949 16.163348 -26.586360 74.447446 -8.692656 -6.896223 11.931280 -12.210220 
